<?xml version="1.0" encoding="UTF-8" standalone="no"?>
<svg
   stroke="currentColor"
   fill="currentColor"
   stroke-width="0"
   viewBox="0 0 512 512"
   height="200px"
   width="200px"
   version="1.1"
   id="svg4"
   sodipodi:docname="magnifier.svg"
   inkscape:version="1.2.2 (732a01da63, 2022-12-09)"
   xmlns:inkscape="http://www.inkscape.org/namespaces/inkscape"
   xmlns:sodipodi="http://sodipodi.sourceforge.net/DTD/sodipodi-0.dtd"
   xmlns="http://www.w3.org/2000/svg"
   xmlns:svg="http://www.w3.org/2000/svg">
  <defs
     id="defs8" />
  <sodipodi:namedview
     id="namedview6"
     pagecolor="#ffffff"
     bordercolor="#000000"
     borderopacity="0.25"
     inkscape:showpageshadow="2"
     inkscape:pageopacity="0.0"
     inkscape:pagecheckerboard="0"
     inkscape:deskcolor="#d1d1d1"
     showgrid="false"
     inkscape:zoom="2.0925"
     inkscape:cx="134.28913"
     inkscape:cy="74.551971"
     inkscape:window-width="1920"
     inkscape:window-height="1017"
     inkscape:window-x="-8"
     inkscape:window-y="-8"
     inkscape:window-maximized="1"
     inkscape:current-layer="svg4" />
  <path
     d="M416 208c0 45.9-14.9 88.3-40 122.7L502.6 457.4c12.5 12.5 12.5 32.8 0 45.3s-32.8 12.5-45.3 0L330.7 376c-34.4 25.2-76.8 40-122.7 40C93.1 416 0 322.9 0 208S93.1 0 208 0S416 93.1 416 208zM208 352a144 144 0 1 0 0-288 144 144 0 1 0 0 288z"
     id="path2"
     style="fill:#fc7b53;fill-opacity:1" />
  <g
     id="g418"
     transform="matrix(0.87757162,-0.88100515,0.88100515,0.87757162,-166.45653,215.39872)"
     style="fill:#fc7b53;fill-opacity:1;stroke:none;stroke-opacity:1">
    <rect
       style="fill:#fc7b53;stroke:none;stroke-width:3.57288;stroke-linejoin:round;stroke-miterlimit:10000;paint-order:fill markers stroke;fill-opacity:1;stroke-opacity:1"
       id="rect392"
       width="137.13783"
       height="42.017174"
       x="148.12881"
       y="190.33667"
       ry="18.019213" />
    <rect
       style="fill:#fc7b53;stroke:none;stroke-width:3.57288;stroke-linejoin:round;stroke-miterlimit:10000;paint-order:fill markers stroke;fill-opacity:1;stroke-opacity:1"
       id="rect392-9"
       width="137.13783"
       height="42.017174"
       x="142.77634"
       y="-237.70631"
       ry="18.019213"
       transform="rotate(90)" />
  </g>
</svg>
